<?xml version="1.0" standalone="no"?>
<!DOCTYPE svg PUBLIC "-//W3C//DTD SVG 20010904//EN"
 "http://www.w3.org/TR/2001/REC-SVG-20010904/DTD/svg10.dtd">
<svg version="1.0" xmlns="http://www.w3.org/2000/svg"
 width="2048.000000pt" height="2048.000000pt" viewBox="0 0 2048.000000 2048.000000"
 preserveAspectRatio="xMidYMid meet">

<g transform="translate(0.000000,2048.000000) scale(0.100000,-0.100000)"
fill="#1E90FF" stroke="none">
<path d="M10005 14833 c-436 -23 -935 -120 -1340 -261 -1062 -368 -1979 -1107
-2548 -2052 -182 -304 -319 -604 -437 -960 -289 -868 -317 -1796 -84 -2690 95
-366 222 -687 406 -1033 462 -866 1194 -1571 2098 -2021 707 -351 1485 -524
2265 -503 810 22 1566 234 2273 639 895 511 1607 1306 2017 2253 160 369 292
853 345 1270 104 815 -7 1655 -317 2405 -389 940 -1029 1688 -1918 2242 -816
508 -1799 762 -2760 711z m360 -1278 c278 -49 534 -159 758 -326 208 -156 460
-448 622 -719 72 -121 227 -431 290 -580 53 -127 140 -369 189 -530 l32 -105
90 -63 c168 -120 320 -250 475 -409 366 -376 548 -713 646 -1198 28 -142 26
-566 -4 -730 -96 -519 -345 -980 -742 -1376 -267 -267 -516 -446 -847 -612
-454 -227 -984 -357 -1463 -357 -683 0 -1254 377 -1663 1100 -142 250 -265
526 -362 813 l-61 181 -140 98 c-202 142 -349 263 -518 428 -293 285 -473 550
-592 873 -89 242 -121 446 -112 712 7 191 24 312 68 493 162 661 623 1286
1279 1734 325 222 742 407 1145 507 132 33 344 71 450 80 131 13 347 6 460
-14z"/>
<path d="M9970 12804 c-594 -71 -1138 -328 -1582 -744 -210 -198 -369 -412
-494 -665 -245 -499 -228 -971 48 -1379 113 -167 310 -370 499 -514 14 -11 20
-3 44 65 35 99 113 265 170 364 l45 76 0 124 c0 252 68 508 201 758 164 308
445 572 774 727 517 243 1145 203 1607 -102 62 -41 113 -73 114 -71 4 4 -82
227 -124 322 -22 50 -72 151 -112 225 -125 235 -236 387 -385 529 -214 202
-388 279 -645 286 -69 2 -141 1 -160 -1z"/>
<path d="M10250 11000 c-77 -12 -214 -57 -285 -92 -193 -97 -357 -278 -442
-490 -70 -172 -81 -412 -29 -591 94 -319 333 -562 641 -652 159 -47 359 -43
522 11 166 54 335 169 441 301 70 86 153 244 177 338 45 175 40 378 -14 547
-94 291 -350 533 -646 608 -91 23 -281 34 -365 20z"/>
<path d="M12076 10453 c-19 -69 -27 -144 -21 -202 10 -95 7 -332 -5 -426 -54
-395 -259 -771 -568 -1040 -125 -107 -213 -166 -367 -241 -533 -259 -1154
-222 -1643 99 -115 75 -192 138 -325 266 -57 54 -102 90 -107 85 -29 -29 121
-455 261 -739 101 -206 162 -308 275 -458 279 -372 570 -514 974 -477 610 56
1161 299 1579 696 307 292 495 619 571 995 103 507 -80 978 -543 1392 -62 55
-76 64 -81 50z"/>
</g>
</svg>
