<?xml version="1.0" standalone="no"?>
<!DOCTYPE svg PUBLIC "-//W3C//DTD SVG 20010904//EN"
 "http://www.w3.org/TR/2001/REC-SVG-20010904/DTD/svg10.dtd">
<svg version="1.0" xmlns="http://www.w3.org/2000/svg"
 width="2048.000000pt" height="2048.000000pt" viewBox="0 0 2048.000000 2048.000000"
 preserveAspectRatio="xMidYMid meet">

<g transform="translate(0.000000,2048.000000) scale(0.100000,-0.100000)"
fill="#007BFF" stroke="none">
<path d="M9925 16870 c-827 -34 -1706 -248 -2475 -605 -315 -146 -574 -291
-862 -481 -778 -516 -1407 -1145 -1923 -1924 -614 -927 -981 -2024 -1066
-3185 -16 -217 -16 -775 0 -970 113 -1380 613 -2647 1456 -3690 730 -904 1671
-1593 2780 -2035 298 -119 725 -245 1065 -315 518 -106 902 -141 1459 -132
459 7 705 33 1141 118 866 170 1655 494 2397 985 342 226 571 406 874 689 588
548 1052 1169 1410 1885 300 601 514 1262 618 1911 65 401 85 655 85 1089 0
523 -28 808 -130 1325 -190 968 -596 1879 -1186 2660 -508 673 -1085 1209
-1772 1648 -870 556 -1846 896 -2881 1001 -311 32 -626 40 -990 26z m-908
-505 c82 -41 132 -138 118 -230 -10 -71 -54 -126 -182 -228 -316 -253 -573
-562 -810 -972 -137 -236 -273 -523 -493 -1040 -207 -488 -343 -679 -603 -851
-98 -65 -241 -138 -497 -254 -559 -254 -813 -382 -1057 -535 -401 -251 -679
-492 -920 -798 -117 -147 -155 -181 -230 -203 -109 -32 -224 24 -267 128 -22
51 -20 88 10 230 155 742 493 1520 948 2178 388 562 942 1133 1471 1517 449
325 911 583 1390 775 324 130 913 307 1026 308 29 0 63 -9 96 -25z m2736 -16
c1287 -321 2452 -1050 3305 -2067 580 -691 994 -1463 1231 -2298 67 -237 121
-474 121 -531 -1 -157 -192 -258 -338 -178 -42 23 -75 57 -161 164 -192 239
-360 404 -601 585 -330 250 -580 389 -1286 719 -567 266 -691 345 -863 553
-137 165 -243 370 -482 937 -226 535 -477 964 -750 1283 -100 117 -307 316
-405 390 -141 105 -175 154 -182 260 -3 47 0 69 16 100 40 77 110 123 190 124
24 0 116 -18 205 -41z m-1298 -484 c346 -52 657 -214 943 -490 381 -367 614
-777 1001 -1763 151 -383 265 -589 421 -755 183 -195 343 -287 945 -544 701
-300 1072 -520 1427 -845 292 -268 494 -605 569 -949 73 -334 30 -667 -129
-1000 -191 -400 -536 -735 -1074 -1045 -177 -102 -346 -183 -813 -386 -485
-212 -566 -251 -685 -329 -121 -80 -294 -251 -379 -377 -83 -122 -203 -374
-331 -692 -206 -512 -279 -675 -415 -925 -330 -607 -736 -996 -1203 -1156
-406 -138 -803 -106 -1202 96 -149 76 -248 145 -387 268 -380 336 -644 774
-998 1662 -203 509 -259 625 -386 796 -200 270 -393 397 -924 607 -169 67
-220 71 -309 28 -127 -62 -180 -207 -122 -332 36 -77 87 -114 244 -174 452
-174 654 -345 856 -722 44 -83 154 -327 317 -703 82 -190 236 -504 329 -670
220 -391 490 -715 810 -971 90 -71 122 -103 145 -145 75 -139 -1 -302 -152
-325 -51 -7 -182 21 -428 92 -946 273 -1790 743 -2540 1415 -417 374 -659 696
-814 1086 -120 302 -166 550 -165 888 0 172 4 235 23 345 46 269 140 544 258
750 262 460 641 810 1148 1059 306 151 609 243 965 293 130 18 688 18 784 0
314 -59 513 -203 728 -527 117 -175 191 -263 307 -368 342 -308 821 -443 1286
-362 396 69 779 313 995 637 205 306 296 645 269 999 -15 211 -66 388 -165
579 -157 302 -381 522 -689 675 -237 118 -446 162 -725 152 -319 -11 -555 -86
-812 -256 -189 -125 -327 -272 -492 -524 -165 -251 -361 -399 -624 -469 -66
-17 -123 -21 -412 -28 -463 -12 -712 -46 -1065 -146 -567 -161 -1015 -408
-1391 -766 -123 -117 -184 -150 -286 -156 -202 -12 -313 124 -391 478 -66 298
-57 540 29 800 118 356 346 664 699 945 323 258 620 422 1285 708 632 272 766
350 941 549 160 181 242 339 458 876 169 420 222 545 306 713 375 749 841
1205 1392 1364 188 54 432 69 628 40z m-6060 -6735 c69 -34 221 -189 262 -266
59 -110 75 -213 53 -340 -12 -67 -126 -407 -148 -442 -21 -33 -84 -62 -132
-62 -53 0 -113 31 -138 72 -53 87 -232 746 -232 855 0 167 173 262 335 183z
m11914 -7 c58 -35 101 -113 101 -183 0 -131 -180 -744 -322 -1095 -587 -1450
-1684 -2633 -3082 -3324 -407 -202 -954 -399 -1339 -485 -136 -30 -168 -27
-239 27 -80 60 -111 173 -73 265 21 48 39 67 175 180 363 301 621 629 886
1123 90 169 299 628 436 959 128 310 286 547 455 683 166 133 310 211 818 442
591 269 881 433 1220 689 139 105 438 398 535 525 119 156 161 193 250 222 46
15 130 2 179 -28z"/>
</g>
</svg>
